<?xml version="1.0" encoding="utf-8"?>
<svg xmlns="http://www.w3.org/2000/svg" viewBox="0 0 500 500" xmlns:bx="https://boxy-svg.com">
  <defs>
    <bx:export>
      <bx:file format="png"/>
    </bx:export>
  </defs>
  <desc>Created with Fabric.js 5.2.4</desc>
  <g transform="matrix(1, 0, 0, 1, 724.881653, -628.159363)" id="f57f6d90-cc59-4d84-b55d-8411ebe65d7a">
    <rect style="stroke: none; stroke-width: 1; stroke-dasharray: none; stroke-linecap: butt; stroke-dashoffset: 0; stroke-linejoin: miter; stroke-miterlimit: 4; fill: rgb(255,255,255); fill-rule: nonzero; opacity: 1; visibility: hidden;" vector-effect="non-scaling-stroke" x="-540" y="-540" rx="0" ry="0" width="1080" height="1080"/>
  </g>
  <g transform="matrix(1, 0, 0, 1, 724.881653, -628.159363)" id="700b1794-8f5a-44ce-8452-aa1856ee910b"/>
  <g transform="matrix(0.357474, 0, 0, 0.344707, 332.308777, 286.929474)" style=""/>
  <path d="M 245.742 61.154 C 246.41 61.154 246.41 61.154 247.078 61.164 C 253.93 61.184 260.59 61.464 267.31 62.844 C 267.806 62.944 268.312 63.044 268.829 63.144 C 292.2 67.984 313.79 78.714 332.1 93.834 C 332.38 94.064 332.67 94.294 332.96 94.534 C 336.28 97.254 339.52 100.034 342.71 102.894 C 343.5 103.604 344.3 104.314 345.09 105.004 C 347.92 107.454 350.61 110.034 353.28 112.664 C 353.62 112.994 353.96 113.334 354.32 113.674 C 356.31 115.654 358.21 117.694 360.06 119.814 C 361.21 121.114 362.4 122.364 363.6 123.614 C 366.42 126.634 368.98 129.824 371.51 133.084 C 372.16 133.904 372.83 134.714 373.5 135.514 C 400.48 168.004 415.52 209.674 421.57 250.804 C 421.64 251.324 421.72 251.844 421.8 252.374 C 423.7 265.994 423.4 280.894 421.57 294.504 C 421.47 295.254 421.47 295.254 421.37 296.024 C 416.89 329.197 405.28 362.143 382.49 387.469 C 382.24 387.763 381.99 388.056 381.72 388.359 C 379.3 391.148 376.72 393.767 374.1 396.364 C 373.37 397.084 372.65 397.809 371.92 398.534 C 368.75 401.674 365.45 404.543 361.93 407.282 C 361.58 407.55 361.24 407.818 360.88 408.095 C 335.9 427.565 306.56 437.988 275.306 442.463 C 274.507 442.578 274.507 442.578 273.687 442.695 C 271.916 442.937 270.124 443.15 268.343 443.352 C 267.958 443.396 267.573 443.44 267.179 443.486 C 258.555 444.458 249.952 444.57 241.278 444.559 C 240.56 444.559 239.841 444.559 239.112 444.559 C 227.999 444.551 217.119 444.039 206.127 442.336 C 204.994 442.175 203.85 442.015 202.726 441.856 C 195.358 440.772 188.132 439.121 180.925 437.256 C 180.166 437.06 180.166 437.06 179.397 436.861 C 162.656 432.488 146.179 425.636 131.564 416.427 C 131.068 416.112 131.068 416.112 130.552 415.79 C 111.25 403.529 94.925 387.877 84.257 367.656 C 83.913 367.011 83.559 366.366 83.204 365.721 C 61.626 325.285 63.417 278.904 76.565 236.374 C 83.751 213.624 94.105 191.824 105.856 171.044 C 106.331 170.214 106.331 170.214 106.817 169.354 C 117.434 150.614 129.327 132.594 143.396 116.184 C 143.831 115.654 144.276 115.134 144.721 114.604 C 148.314 110.374 152.12 106.384 156.088 102.494 C 157.049 101.544 158.011 100.584 158.972 99.634 C 162.535 96.114 166.158 92.834 170.126 89.764 C 170.733 89.284 171.33 88.804 171.927 88.314 C 179.397 82.404 187.352 77.374 195.834 73.004 C 196.35 72.734 196.35 72.734 196.866 72.464 C 206.573 67.454 217.423 64.004 228.232 62.334 C 228.779 62.244 229.325 62.154 229.882 62.064 C 235.185 61.274 240.388 61.134 245.742 61.154 Z" fill="#000000" style="stroke-width: 1;"/>
  <g transform="matrix(0.377408, 0, 0, 0.363929, 301.628998, 332.365631)" style="">
    <path style="stroke: none; stroke-width: 1; stroke-dasharray: none; stroke-linecap: butt; stroke-dashoffset: 0px; stroke-linejoin: miter; stroke-miterlimit: 4; fill-rule: nonzero; opacity: 1; fill: rgb(255, 255, 255);" vector-effect="non-scaling-stroke" d="M -81.895 -206.32 C -80.789 -205.38 -79.684 -204.43 -78.579 -203.49 C -77.963 -202.97 -77.348 -202.44 -76.714 -201.9 C -74.301 -199.8 -72.057 -197.68 -69.895 -195.32 C -69.895 -194.66 -69.895 -194 -69.895 -193.32 C -69.235 -193.32 -68.575 -193.32 -67.895 -193.32 C -66.413 -191.82 -66.413 -191.82 -64.704 -189.76 C -61.284 -185.74 -57.692 -181.98 -53.95 -178.26 C -53.296 -177.61 -52.641 -176.95 -51.967 -176.28 C -49.832 -174.14 -47.694 -172.01 -45.556 -169.88 C -44.063 -168.39 -42.571 -166.9 -41.079 -165.41 C -37.174 -161.51 -33.265 -157.61 -29.356 -153.71 C -25.359 -149.72 -21.365 -145.74 -17.37 -141.75 C -9.548 -133.93 -1.723 -126.13 6.105 -118.32 C 5.158 -117.21 4.21 -116.1 3.262 -114.98 C 2.47 -114.06 2.47 -114.06 1.663 -113.11 C -0.414 -110.73 -2.614 -108.49 -4.856 -106.27 C -5.739 -105.39 -6.622 -104.51 -7.532 -103.6 C -8.888 -102.26 -8.888 -102.26 -10.27 -100.89 C -11.197 -99.97 -12.124 -99.04 -13.079 -98.099 C -15.349 -95.838 -17.621 -93.578 -19.895 -91.327 C -18.543 -88.296 -17.041 -86.241 -14.665 -83.935 C -14.03 -83.312 -13.395 -82.688 -12.74 -82.046 C -12.07 -81.396 -11.399 -80.746 -10.708 -80.076 C -6.022 -75.47 -1.437 -70.868 2.808 -65.846 C 4.47 -63.898 6.258 -62.099 8.105 -60.326 C 11.631 -61.892 14.352 -64.044 17.355 -66.451 C 39.162 -83.266 67.585 -90.347 94.757 -86.857 C 109.852 -83.525 122.543 -74.685 131.042 -61.826 C 146.115 -35.961 149.595 -3.266 142.105 25.674 C 137.701 41.192 130.181 53.891 116.292 62.487 C 100.7 70.949 81.91 70.979 65.034 66.061 C 42.818 58.495 24.388 45.502 7.288 29.647 C 4.969 27.551 2.562 25.605 0.105 23.674 C 0.01 24.248 -0.086 24.823 -0.183 25.414 C -8.34 72.495 -19.927 127.652 -61.263 157.019 C -67.766 161.452 -74.607 164.743 -81.895 167.674 C -82.768 168.035 -83.648 168.396 -84.548 168.768 C -99.09 173.731 -116.42 171.653 -130.01 165.201 C -143.12 158.181 -152.17 147.703 -157.28 133.799 C -162.02 116.829 -158.97 100.06 -150.97 84.674 C -143.03 71.156 -133.82 76.787 -133.81 77.779 C -133.91 80.674 -133.91 80.674 -134.39 83.092 C -136.5 93.659 -135.28 104.23 -129.81 113.541 C -126.12 118.573 -120.64 120.763 -114.91 122.674 C -105.78 123.614 -97.873 122.099 -90.262 116.862 C -70.705 100.593 -62.771 69.722 -53.958 46.862 C -48.554 32.853 -43.109 18.881 -37.099 5.119 C -36.67 4.13 -36.241 3.142 -35.799 2.123 C -31.708 -7.115 -26.761 -15.815 -21.504 -24.433 C -20.664 -26.375 -20.664 -26.375 -21.688 -28.45 C -29.173 -40.081 -41.132 -49.66 -50.895 -59.326 C -54.817 -57.526 -57.207 -55.026 -60.02 -51.826 C -67.967 -42.988 -76.448 -34.682 -84.898 -26.326 C -88.052 -27.722 -90.172 -29.358 -92.599 -31.793 C -93.686 -32.87 -93.686 -32.87 -94.786 -33.969 C -95.566 -34.757 -96.343 -35.544 -97.153 -36.356 C -98.393 -37.6 -98.393 -37.6 -99.67 -38.869 C -102.41 -41.613 -105.15 -44.364 -107.89 -47.115 C -109.79 -49.019 -111.69 -50.921 -113.59 -52.824 C -118.08 -57.321 -122.57 -61.823 -127.05 -66.328 C -132.16 -71.456 -137.27 -76.579 -142.38 -81.701 C -152.9 -92.237 -163.41 -102.78 -173.91 -113.32 C -169.31 -118.84 -164.42 -123.94 -159.33 -129.01 C -158.07 -130.27 -158.07 -130.27 -156.79 -131.55 C -154.5 -133.84 -152.22 -136.12 -149.93 -138.4 C -147.54 -140.79 -145.14 -143.18 -142.75 -145.57 C -138.23 -150.09 -133.7 -154.61 -129.17 -159.13 C -124.01 -164.27 -118.86 -169.42 -113.7 -174.57 C -103.1 -185.16 -92.499 -195.74 -81.895 -206.32 Z" stroke-linecap="round"/>
  </g>
  <g transform="matrix(0.732353, 0.125803, -0.125803, 0.732353, 241.261642, 271.126617)" style="">
    <path style="stroke: none; stroke-width: 1; stroke-dasharray: none; stroke-linecap: butt; stroke-dashoffset: 0px; stroke-linejoin: miter; stroke-miterlimit: 4; fill-rule: nonzero; opacity: 1; fill: rgb(255, 255, 255);" vector-effect="non-scaling-stroke" d="M 0 0 C 0.33 0.66 0.66 1.32 1 2 C -0.744 2.238 -0.744 2.238 -2.523 2.48 C -33.246 6.868 -59.987 17.855 -83 39 C -83.871 39.789 -84.743 40.578 -85.641 41.391 C -106.061 60.783 -119.73 88.265 -124 116 C -124.275 117.717 -124.275 117.717 -124.555 119.469 C -125.318 125.825 -125.184 132.233 -125.187 138.625 C -125.2 139.902 -125.212 141.18 -125.225 142.496 C -125.243 154.362 -123.904 165.848 -120.812 177.313 C -120.598 178.11 -120.384 178.907 -120.163 179.728 C -114.479 200.043 -104.638 217.977 -91 234 C -90.163 234.99 -89.327 235.98 -88.465 237 C -82.842 243.416 -76.793 248.852 -70 254 C -69.469 254.406 -68.938 254.812 -68.391 255.23 C -37.586 278.622 0.556 289.207 39.059 284.129 C 66.022 280.045 92.332 270.2 113 252 C 114.241 250.938 114.241 250.938 115.508 249.855 C 120.758 245.272 125.502 240.409 130.09 235.164 C 131.672 233.371 129.028 242.147 130.742 240.481 C 125.048 260.055 118.408 267.771 105 283 C 104.259 283.851 103.518 284.702 102.754 285.578 C 100.536 288.085 98.282 290.551 96 293 C 95.304 293.75 94.608 294.5 93.891 295.273 C 65.688 324.608 21.56 343.238 -18.988 344.168 C -58.888 344.515 -97.458 334.867 -130 311 C -130.551 310.608 -131.102 310.217 -131.67 309.813 C -171.2 281.586 -196.175 238.524 -204.687 191.176 C -211.229 145.522 -201.269 97.452 -173.516 60.223 C -170.565 56.378 -167.383 52.77 -164.074 49.23 C -162.175 47.188 -160.402 45.085 -158.625 42.938 C -154.292 37.977 -149.186 34.029 -144 30 C -143.06 29.256 -142.121 28.512 -141.152 27.746 C -103.604 -1.312 -46.176 -17.675 0 0 Z" stroke-linecap="round" transform=" translate(35.81, -168.43)"/>
  </g>
  <g transform="matrix(0.062901, 0.327986, -0.327986, 0.062901, 302.001984, 175.700714)" style="">
    <path style="stroke: none; stroke-width: 1; stroke-dasharray: none; stroke-linecap: butt; stroke-dashoffset: 0px; stroke-linejoin: miter; stroke-miterlimit: 4; fill-rule: nonzero; opacity: 1; fill: rgb(255, 255, 255);" vector-effect="non-scaling-stroke" transform=" translate(135.56, -199)" d="M 0 0 C 8.938 23.835 0.945 59.161 -8.953 81.68 C -10.788 85.566 -12.84 89.285 -15 93 C -15.469 93.843 -15.938 94.686 -16.422 95.555 C -27.617 114.059 -47.643 125.467 -68 131 C -54.697 131.833 -41.884 129.219 -29.785 123.637 C -29.196 123.427 -28.607 123.216 -28 123 C -27.34 123.33 -26.68 123.66 -26 124 C -37.259 155.615 -55.612 184.004 -86.363 199.719 C -94.861 203.433 -102.741 205.337 -112 205 C -112 205.66 -112 206.32 -112 207 C -99.366 206.666 -87.354 205.732 -75 203 C -73.334 202.663 -71.668 202.328 -70 202 C -73.635 208.802 -78.363 214.054 -83.672 219.6 C -84.792 220.78 -85.884 221.987 -86.969 223.199 C -105.675 243.424 -133.041 249.985 -159 255 C -154.738 255.793 -150.621 256.177 -146.289 256.316 C -145.045 256.358 -143.801 256.4 -142.52 256.443 C -140.592 256.502 -140.592 256.502 -138.625 256.563 C -137.317 256.606 -136.008 256.649 -134.66 256.693 C -131.44 256.799 -128.22 256.901 -125 257 C -141.477 273.534 -158.817 281.865 -181.465 287.229 C -193.709 290.315 -202.496 295.732 -210 306 C -212.086 309.553 -213.624 313.121 -215 317 C -215.318 317.855 -215.637 318.709 -215.965 319.59 C -217.529 324.615 -218.073 329.095 -217.793 334.336 C -216.985 349.464 -216.985 349.464 -219.98 353.996 C -222.866 356.265 -225.856 358.108 -229 360 C -231.003 361.693 -232.914 363.387 -234.812 365.188 C -235.581 365.901 -235.581 365.901 -236.365 366.629 C -242.24 372.127 -247.927 377.82 -253.625 383.5 C -254.362 384.233 -254.362 384.233 -255.114 384.981 C -256.529 386.39 -257.941 387.805 -259.352 389.219 C -260.586 390.455 -260.586 390.455 -261.846 391.717 C -264.018 393.921 -264.018 393.921 -265.666 396.299 C -266.326 397.141 -266.326 397.141 -267 398 C -267.66 398 -268.32 398 -269 398 C -262.396 366.671 -262.396 366.671 -253.125 356.813 C -250.582 354.071 -250.582 354.071 -251.187 350.125 C -251.456 349.094 -251.724 348.063 -252 347 C -254.473 347.344 -254.473 347.344 -257 348 C -258.271 350.541 -258.152 352.49 -258.262 355.332 C -258.805 362.398 -261.04 368.219 -263.812 374.688 C -264.251 375.75 -264.69 376.813 -265.143 377.908 C -267.664 383.982 -270.297 390.005 -273 396 C -273.66 396 -274.32 396 -275 396 C -274.905 390.33 -274.799 384.66 -274.683 378.99 C -274.645 377.069 -274.61 375.148 -274.578 373.227 C -273.993 338.237 -267.709 331.951 -266 330.813 C -264.813 329.872 -263.634 328.92 -262.465 327.957 C -261.879 327.481 -261.294 327.005 -260.691 326.514 C -244.884 312.36 -237.88 288.864 -236.703 268.431 C -236.405 262.394 -236.182 256.353 -235.971 250.312 C -235.38 233.887 -234.116 217.325 -229.375 201.5 C -229.123 200.644 -228.87 199.788 -228.61 198.906 C -222.771 179.94 -213.302 162.539 -201 147 C -199.982 150.296 -200.02 153.069 -200.187 156.5 C -200.305 165.879 -198.052 174.893 -196 184 C -195.93 183.286 -195.86 182.571 -195.788 181.835 C -192.211 146.139 -180.443 121.334 -152.5 98.313 C -150.672 96.869 -148.838 95.432 -147 94 C -144.962 92.373 -142.928 90.741 -140.895 89.108 C -137.934 86.733 -134.967 84.367 -132 82 C -130.651 84.698 -130.984 86.653 -131.121 89.664 C -131.194 91.346 -131.194 91.346 -131.268 93.063 C -131.324 94.238 -131.38 95.414 -131.437 96.625 C -131.49 97.808 -131.542 98.992 -131.596 100.211 C -131.726 103.141 -131.861 106.07 -132 109 C -131.755 108.125 -131.51 107.251 -131.257 106.35 C -127.862 94.421 -123.025 84.464 -115 75 C -114.214 74.018 -113.427 73.035 -112.617 72.023 C -99.958 57.399 -79.962 48.858 -63.361 39.638 C -51.646 33.13 -40.221 26.327 -29 19 C -27.908 18.295 -26.816 17.59 -25.691 16.863 C -19.248 12.645 -13.037 8.15 -6.897 3.504 C -2.214 0 -2.214 0 0 0 Z" stroke-linecap="round"/>
  </g>
  <g transform="matrix(0.377408, 0, 0, 0.363929, 302.186188, 271.688232)" style="">
    <path style="stroke: none; stroke-width: 1; stroke-dasharray: none; stroke-linecap: butt; stroke-dashoffset: 0px; stroke-linejoin: miter; stroke-miterlimit: 4; fill-rule: nonzero; opacity: 1; fill: rgb(255, 255, 255);" vector-effect="non-scaling-stroke" d="M -48.815 -79.296 C -48.007 -79.368 -47.199 -79.44 -46.366 -79.515 C -38.887 -77.637 -32.52 -68.962 -27.191 -63.629 C -26.403 -62.845 -25.615 -62.06 -24.803 -61.252 C -22.224 -58.682 -19.648 -56.108 -17.073 -53.534 C -15.273 -51.738 -13.474 -49.941 -11.674 -48.145 C -7.915 -44.392 -4.158 -40.637 -0.402 -36.881 C 3.935 -32.542 8.279 -28.21 12.624 -23.88 C 16.818 -19.701 21.006 -15.516 25.192 -11.33 C 26.97 -9.553 28.749 -7.779 30.529 -6.006 C 33.011 -3.533 35.487 -1.055 37.961 1.425 C 38.699 2.157 39.437 2.889 40.197 3.644 C 40.869 4.321 41.542 4.998 42.235 5.695 C 42.82 6.28 43.406 6.864 44.008 7.466 C 47.507 11.55 48.131 15.371 47.985 20.634 C 47.076 25.42 43.929 27.954 40.497 31.204 C 39.471 32.243 38.449 33.287 37.431 34.333 C 27.965 44.002 27.965 44.002 22.872 44.704 C 19.135 44.65 17.491 43.725 14.767 41.208 C 14.072 40.569 13.377 39.93 12.66 39.272 C 8.997 35.77 5.381 32.227 1.802 28.638 C 0.973 27.811 0.145 26.985 -0.709 26.133 C -3.423 23.423 -6.133 20.71 -8.843 17.997 C -10.734 16.106 -12.626 14.215 -14.518 12.324 C -18.47 8.375 -22.419 4.423 -26.367 0.47 C -30.933 -4.101 -35.502 -8.668 -40.072 -13.233 C -44.006 -17.162 -47.937 -21.092 -51.866 -25.025 C -54.21 -27.37 -56.554 -29.714 -58.9 -32.057 C -61.507 -34.661 -64.111 -37.269 -66.714 -39.877 C -67.492 -40.654 -68.271 -41.431 -69.073 -42.231 C -69.778 -42.939 -70.483 -43.646 -71.21 -44.376 C -71.825 -44.992 -72.441 -45.607 -73.075 -46.242 C -75.681 -49.078 -76.038 -51.773 -75.956 -55.601 C -75.037 -60.051 -71.649 -62.718 -68.503 -65.796 C -67.49 -66.839 -66.48 -67.885 -65.472 -68.933 C -64.4 -70.034 -63.327 -71.135 -62.253 -72.233 C -61.734 -72.766 -61.215 -73.299 -60.68 -73.848 C -56.869 -77.663 -54.148 -78.961 -48.815 -79.296 Z" stroke-linecap="round"/>
  </g>
  <g transform="matrix(0.377408, 0, 0, 0.363929, 248.935654, 322.058716)" style="">
    <path style="stroke: none; stroke-width: 1; stroke-dasharray: none; stroke-linecap: butt; stroke-dashoffset: 0px; stroke-linejoin: miter; stroke-miterlimit: 4; fill-rule: nonzero; opacity: 1; fill: rgb(255, 255, 255);" vector-effect="non-scaling-stroke" d="M -43.015 -77.566 C -39.543 -75.219 -36.746 -72.319 -33.84 -69.314 C -32.972 -68.449 -32.104 -67.584 -31.21 -66.693 C -28.846 -64.329 -26.502 -61.949 -24.164 -59.559 C -21.711 -57.059 -19.236 -54.582 -16.762 -52.102 C -12.617 -47.94 -8.487 -43.763 -4.366 -39.576 C 1.448 -33.666 7.288 -27.783 13.134 -21.905 C 21.387 -13.602 29.629 -5.287 37.844 3.053 C 38.658 3.876 39.473 4.7 40.312 5.548 C 41.049 6.298 41.787 7.049 42.546 7.821 C 43.19 8.475 43.834 9.128 44.497 9.801 C 46.862 12.397 47.186 14.252 47.297 17.684 C 47.334 18.432 47.372 19.179 47.41 19.95 C 46.326 26.277 40.88 30.848 36.485 35.184 C 35.632 36.048 35.632 36.048 34.762 36.93 C 34.206 37.483 33.651 38.036 33.078 38.606 C 32.58 39.102 32.082 39.598 31.569 40.109 C 28.456 42.713 25.642 43.738 21.61 43.809 C 20.88 43.837 20.15 43.866 19.399 43.895 C 12.497 42.577 7.357 36.091 2.624 31.332 C 1.807 30.519 0.99 29.706 0.149 28.867 C -2.541 26.186 -5.224 23.498 -7.906 20.809 C -9.776 18.941 -11.646 17.073 -13.516 15.205 C -17.43 11.295 -21.339 7.38 -25.247 3.463 C -29.761 -1.062 -34.283 -5.58 -38.808 -10.095 C -43.169 -14.445 -47.524 -18.801 -51.876 -23.159 C -53.726 -25.01 -55.578 -26.86 -57.431 -28.709 C -60.016 -31.289 -62.595 -33.876 -65.173 -36.464 C -65.941 -37.229 -66.71 -37.994 -67.502 -38.782 C -68.203 -39.489 -68.904 -40.195 -69.626 -40.923 C -70.236 -41.533 -70.846 -42.144 -71.474 -42.773 C -74.056 -45.776 -74.952 -47.994 -75.39 -51.941 C -74.593 -59.651 -68.215 -64.673 -62.953 -69.878 C -62.233 -70.606 -61.513 -71.334 -60.771 -72.084 C -60.077 -72.775 -59.383 -73.467 -58.668 -74.179 C -58.039 -74.806 -57.409 -75.433 -56.761 -76.079 C -52.683 -79.552 -47.855 -79.062 -43.015 -77.566 Z" stroke-linecap="round"/>
  </g>
  <g transform="matrix(0.372915, 0.067395, -0.067395, 0.359436, 330.783966, 329.984833)" style="">
    <path style="stroke: none; stroke-width: 1; stroke-dasharray: none; stroke-linecap: butt; stroke-dashoffset: 0px; stroke-linejoin: miter; stroke-miterlimit: 4; fill-rule: nonzero; opacity: 1; transform-box: fill-box; transform-origin: 50% 50%;" vector-effect="non-scaling-stroke" d="M 19.124 -21.104 C 25.783 -15.768 31.109 -7.983 32.936 0.424 C 33.685 7.916 31.949 14.441 27.358 20.51 C 21.604 26.653 16.553 28.569 8.249 28.861 C -9.094 28.421 -22.764 18.868 -34.602 6.962 C -38.041 3.342 -41.117 -0.552 -44.064 -4.576 C -42.688 -7.875 -41.362 -9.353 -38.318 -11.197 C -37.568 -11.656 -36.818 -12.114 -36.046 -12.586 C -35.247 -13.057 -34.449 -13.528 -33.626 -14.014 C -32.812 -14.501 -31.999 -14.988 -31.16 -15.49 C -15.393 -24.807 2.201 -32.496 19.124 -21.104 Z" stroke-linecap="round"/>
  </g>
</svg>